<svg width="127" height="33" viewBox="0 0 127 33" fill="none" xmlns="http://www.w3.org/2000/svg">
<path d="M3.44 6.52C2.54 6.52 1.8 6.26 1.22 5.74C0.66 5.2 0.38 4.54 0.38 3.76C0.38 2.96 0.66 2.3 1.22 1.78C1.8 1.24 2.54 0.969998 3.44 0.969998C4.32 0.969998 5.04 1.24 5.6 1.78C6.18 2.3 6.47 2.96 6.47 3.76C6.47 4.54 6.18 5.2 5.6 5.74C5.04 6.26 4.32 6.52 3.44 6.52ZM5.99 8.26V25H0.86V8.26H5.99ZM20.8077 8.08C22.7677 8.08 24.3277 8.72 25.4877 10C26.6677 11.26 27.2577 13 27.2577 15.22V25H22.1577V15.91C22.1577 14.79 21.8677 13.92 21.2877 13.3C20.7077 12.68 19.9277 12.37 18.9477 12.37C17.9677 12.37 17.1877 12.68 16.6077 13.3C16.0277 13.92 15.7377 14.79 15.7377 15.91V25H10.6077V8.26H15.7377V10.48C16.2577 9.74 16.9577 9.16 17.8377 8.74C18.7177 8.3 19.7077 8.08 20.8077 8.08ZM38.5325 25.24C37.0725 25.24 35.7725 24.99 34.6325 24.49C33.4925 23.99 32.5925 23.31 31.9325 22.45C31.2725 21.57 30.9025 20.59 30.8225 19.51H35.8925C35.9525 20.09 36.2225 20.56 36.7025 20.92C37.1825 21.28 37.7725 21.46 38.4725 21.46C39.1125 21.46 39.6025 21.34 39.9425 21.1C40.3025 20.84 40.4825 20.51 40.4825 20.11C40.4825 19.63 40.2325 19.28 39.7325 19.06C39.2325 18.82 38.4225 18.56 37.3025 18.28C36.1025 18 35.1025 17.71 34.3025 17.41C33.5025 17.09 32.8125 16.6 32.2325 15.94C31.6525 15.26 31.3625 14.35 31.3625 13.21C31.3625 12.25 31.6225 11.38 32.1425 10.6C32.6825 9.8 33.4625 9.17 34.4825 8.71C35.5225 8.25 36.7525 8.02 38.1725 8.02C40.2725 8.02 41.9225 8.54 43.1225 9.58C44.3425 10.62 45.0425 12 45.2225 13.72H40.4825C40.4025 13.14 40.1425 12.68 39.7025 12.34C39.2825 12 38.7225 11.83 38.0225 11.83C37.4225 11.83 36.9625 11.95 36.6425 12.19C36.3225 12.41 36.1625 12.72 36.1625 13.12C36.1625 13.6 36.4125 13.96 36.9125 14.2C37.4325 14.44 38.2325 14.68 39.3125 14.92C40.5525 15.24 41.5625 15.56 42.3425 15.88C43.1225 16.18 43.8025 16.68 44.3825 17.38C44.9825 18.06 45.2925 18.98 45.3125 20.14C45.3125 21.12 45.0325 22 44.4725 22.78C43.9325 23.54 43.1425 24.14 42.1025 24.58C41.0825 25.02 39.8925 25.24 38.5325 25.24ZM54.481 10.63C54.981 9.85 55.671 9.22 56.551 8.74C57.431 8.26 58.461 8.02 59.641 8.02C61.021 8.02 62.271 8.37 63.391 9.07C64.511 9.77 65.391 10.77 66.031 12.07C66.691 13.37 67.021 14.88 67.021 16.6C67.021 18.32 66.691 19.84 66.031 21.16C65.391 22.46 64.511 23.47 63.391 24.19C62.271 24.89 61.021 25.24 59.641 25.24C58.481 25.24 57.451 25 56.551 24.52C55.671 24.04 54.981 23.42 54.481 22.66V32.98H49.351V8.26H54.481V10.63ZM61.801 16.6C61.801 15.32 61.441 14.32 60.721 13.6C60.021 12.86 59.151 12.49 58.111 12.49C57.091 12.49 56.221 12.86 55.501 13.6C54.801 14.34 54.451 15.35 54.451 16.63C54.451 17.91 54.801 18.92 55.501 19.66C56.221 20.4 57.091 20.77 58.111 20.77C59.131 20.77 60.001 20.4 60.721 19.66C61.441 18.9 61.801 17.88 61.801 16.6ZM69.5923 16.6C69.5923 14.88 69.9123 13.37 70.5523 12.07C71.2123 10.77 72.1023 9.77 73.2223 9.07C74.3423 8.37 75.5923 8.02 76.9723 8.02C78.1523 8.02 79.1823 8.26 80.0623 8.74C80.9623 9.22 81.6523 9.85 82.1323 10.63V8.26H87.2623V25H82.1323V22.63C81.6323 23.41 80.9323 24.04 80.0323 24.52C79.1523 25 78.1223 25.24 76.9423 25.24C75.5823 25.24 74.3423 24.89 73.2223 24.19C72.1023 23.47 71.2123 22.46 70.5523 21.16C69.9123 19.84 69.5923 18.32 69.5923 16.6ZM82.1323 16.63C82.1323 15.35 81.7723 14.34 81.0523 13.6C80.3523 12.86 79.4923 12.49 78.4723 12.49C77.4523 12.49 76.5823 12.86 75.8623 13.6C75.1623 14.32 74.8123 15.32 74.8123 16.6C74.8123 17.88 75.1623 18.9 75.8623 19.66C76.5823 20.4 77.4523 20.77 78.4723 20.77C79.4923 20.77 80.3523 20.4 81.0523 19.66C81.7723 18.92 82.1323 17.91 82.1323 16.63ZM90.8537 16.63C90.8537 14.89 91.2037 13.37 91.9037 12.07C92.6237 10.77 93.6137 9.77 94.8737 9.07C96.1537 8.37 97.6137 8.02 99.2537 8.02C101.354 8.02 103.104 8.57 104.504 9.67C105.924 10.77 106.854 12.32 107.294 14.32H101.834C101.374 13.04 100.484 12.4 99.1637 12.4C98.2237 12.4 97.4737 12.77 96.9137 13.51C96.3537 14.23 96.0737 15.27 96.0737 16.63C96.0737 17.99 96.3537 19.04 96.9137 19.78C97.4737 20.5 98.2237 20.86 99.1637 20.86C100.484 20.86 101.374 20.22 101.834 18.94H107.294C106.854 20.9 105.924 22.44 104.504 23.56C103.084 24.68 101.334 25.24 99.2537 25.24C97.6137 25.24 96.1537 24.89 94.8737 24.19C93.6137 23.49 92.6237 22.49 91.9037 21.19C91.2037 19.89 90.8537 18.37 90.8537 16.63ZM126.718 16.36C126.718 16.84 126.688 17.34 126.628 17.86H115.018C115.098 18.9 115.428 19.7 116.008 20.26C116.608 20.8 117.338 21.07 118.198 21.07C119.478 21.07 120.368 20.53 120.868 19.45H126.328C126.048 20.55 125.538 21.54 124.798 22.42C124.078 23.3 123.168 23.99 122.068 24.49C120.968 24.99 119.738 25.24 118.378 25.24C116.738 25.24 115.278 24.89 113.998 24.19C112.718 23.49 111.718 22.49 110.998 21.19C110.278 19.89 109.918 18.37 109.918 16.63C109.918 14.89 110.268 13.37 110.968 12.07C111.688 10.77 112.688 9.77 113.968 9.07C115.248 8.37 116.718 8.02 118.378 8.02C119.998 8.02 121.438 8.36 122.698 9.04C123.958 9.72 124.938 10.69 125.638 11.95C126.358 13.21 126.718 14.68 126.718 16.36ZM121.468 15.01C121.468 14.13 121.168 13.43 120.568 12.91C119.968 12.39 119.218 12.13 118.318 12.13C117.458 12.13 116.728 12.38 116.128 12.88C115.548 13.38 115.188 14.09 115.048 15.01H121.468Z" fill="white"/>
</svg>
